#!OML:ASF E:\inclinewalkrobotboard\Project 1\Capture day 1\Session 1\subject1.ASF
:FULLY-SPECIFIED
:DEGREES
299
root 10.8951 16.41 10.678 16.8956 -82.9729 2.4315
lowerback 5.92302 -0.881505 -14.561
upperback 2.57838 -2.03644 -0.248059
thorax -0.0932945 -1.17911 8.0336
lowerneck 1.69605 -12.4046 -6.11775
upperneck -11.7775 -15.9275 16.9822
head -1.81051 -8.60213 6.19265
rclavicle 5.56597e-015 6.36111e-014
rhumerus -43.4015 -38.5093 -49.7061
rradius 76.3811
rwrist -35.992
rhand -12.764 -25.2366
rfingers 7.12502
rthumb 13.3206 -54.7909
lclavicle 5.56597e-015 6.36111e-014
lhumerus -26.1663 -39.6906 107.171
lradius 98.4904
lwrist -6.93482
lhand -55.481 -35.0816
lfingers 7.12502
lthumb -27.8401 -7.12423
rfemur -11.6057 5.69065 -10.5074
rtibia 5.45753
rfoot -4.65042 -45.8181
rtoes 40.8052
lfemur -31.3804 -1.40312 -8.28321
ltibia 18.4918
lfoot -15.1401 18.9761
ltoes -63.1951
300
root 10.8814 16.417 10.6685 17.6244 -83.1169 1.5256
lowerback 6.08998 -0.727618 -14.6336
upperback 2.58736 -1.8658 -0.241146
thorax -0.216246 -1.08717 8.08004
lowerneck 2.15004 -12.3416 -5.89579
upperneck -12.3902 -15.7914 16.9807
head -2.09986 -8.58274 6.23611
rclavicle 8.74653e-015 -1.59028e-014
rhumerus -43.7129 -38.6399 -49.506
rradius 76.3056
rwrist -35.9478
rhand -12.8466 -25.0718
rfingers 7.12502
rthumb 13.2411 -54.6312
lclavicle 8.74653e-015 -1.59028e-014
lhumerus -26.3401 -39.8394 107.24
lradius 98.511
lwrist -6.93119
lhand -55.263 -35.0286
lfingers 7.12502
lthumb -27.6317 -7.03775
rfemur -11.5151 5.89965 -10.329
rtibia 5.52551
rfoot -4.52446 -45.7207
rtoes 40.9714
lfemur -30.9874 -1.20764 -8.15675
ltibia 18.3227
lfoot -14.9432 19.0483
ltoes -63.3827
301
root 10.8693 16.4188 10.6672 17.7058 -82.9898 1.47391
lowerback 6.06981 -0.695029 -14.5459
upperback 2.59295 -1.8143 -0.268819
thorax -0.216397 -1.06091 7.99776
lowerneck 2.14802 -12.3459 -5.74848
upperneck -12.5233 -15.7781 17.0273
head -2.14841 -8.59092 6.23704
rclavicle -1.03368e-014 4.13472e-014
rhumerus -43.9578 -38.8878 -49.2628
rradius 76.1432
rwrist -35.8221
rhand -12.4219 -25.2212
rfingers 7.12502
rthumb 13.6504 -54.7536
lclavicle -1.03368e-014 4.13472e-014
lhumerus -26.3499 -40.0728 107.207
lradius 98.517
lwrist -6.86917
lhand -55.0063 -34.7181
lfingers 7.12502
lthumb -27.3862 -6.68813
rfemur -11.4289 5.795 -10.2822
rtibia 5.47634
rfoot -3.5465 -45.7747
rtoes 39.9869
lfemur -31.0161 -1.21416 -8.14445
ltibia 18.3262
lfoot -14.5494 19.1729
ltoes -63.8357
302
root 10.8556 16.4208 10.6619 17.877 -83.0641 1.28385
lowerback 6.02343 -0.62282 -14.55
upperback 2.60748 -1.71125 -0.302912
thorax -0.20126 -1.01169 7.95688
lowerneck 2.36285 -12.3124 -5.86285
upperneck -12.7579 -15.7134 17.1944
head -2.23452 -8.57912 6.33337
rclavicle 4.77083e-015 -6.36111e-015
rhumerus -44.1267 -39.0402 -49.0992
rradius 75.9755
rwrist -35.7298
rhand -12.1604 -25.5132
rfingers 7.12502
rthumb 13.9024 -55.0285
lclavicle 4.77083e-015 -6.36111e-015
lhumerus -26.3442 -40.1932 107.142
lradius 98.5143
lwrist -6.88499
lhand -54.8716 -34.427
lfingers 7.12502
lthumb -27.2574 -6.37676
rfemur -11.4747 5.63431 -10.2271
rtibia 5.53505
rfoot -1.1814 -45.6805
rtoes 37.4428
lfemur -30.8666 -1.0865 -8.12714
ltibia 18.2349
lfoot -14.52 19.1641
ltoes -63.8607
303
root 10.8452 16.4175 10.6783 15.9278 -82.342 3.42228
lowerback 5.99528 -0.925628 -14.2292
upperback 2.55298 -2.09283 -0.381641
thorax -0.168335 -1.19658 7.70865
lowerneck 2.9541 -12.169 -6.31187
upperneck -13.283 -15.4906 17.5416
head -2.44153 -8.50672 6.58077
rclavicle -1.74931e-014 4.13472e-014
rhumerus -44.1431 -38.885 -49.0495
rradius 75.8075
rwrist -35.6788
rhand -12.4 -25.6748
rfingers 7.12502
rthumb 13.6715 -55.2058
lclavicle -1.74931e-014 4.13472e-014
lhumerus -26.4101 -40.121 107.14
lradius 98.5234
lwrist -6.9192
lhand -54.9232 -34.3269
lfingers 7.12502
lthumb -27.3067 -6.28442
rfemur -11.0639 4.93171 -10.471
rtibia 5.36445
rfoot -0.478885 -45.7252
rtoes 36.5246
lfemur -31.3763 -1.86865 -8.38177
ltibia 18.4704
lfoot -14.4632 19.178
ltoes -63.9658
304
root 10.8311 16.4178 10.6759 16.0164 -82.441 3.33161
lowerback 5.9272 -0.918088 -14.2934
upperback 2.55093 -2.07392 -0.33945
thorax -0.132015 -1.19018 7.787
lowerneck 2.9196 -12.1445 -6.22336
upperneck -13.4079 -15.4505 17.4213
head -2.49617 -8.48805 6.53951
rclavicle 2.62396e-014 3.65764e-014
rhumerus -43.956 -38.6069 -49.0241
rradius 75.5474
rwrist -35.5935
rhand -12.7186 -25.3918
rfingers 7.12502
rthumb 13.3645 -54.9432
lclavicle 2.62396e-014 3.65764e-014
lhumerus -26.4408 -39.965 107.2
lradius 98.5424
lwrist -6.87848
lhand -54.9055 -34.2987
lfingers 7.12502
lthumb -27.2898 -6.25359
rfemur -11.103 5.05924 -10.4699
rtibia 5.46629
rfoot -1.69906 -45.6667
rtoes 38.1063
lfemur -31.2369 -1.90309 -8.3493
ltibia 18.3832
lfoot -14.7193 19.167
ltoes -63.6855
305
root 10.8186 16.4153 10.6757 16.0465 -82.3814 3.39495
lowerback 5.78903 -0.938948 -14.2861
upperback 2.53402 -2.0774 -0.306088
thorax -0.0704642 -1.19484 7.81454
lowerneck 2.6528 -12.1825 -5.98838
upperneck -13.3049 -15.5073 17.1927
head -2.45649 -8.50183 6.41171
rclavicle -1.66979e-014 -3.4191e-014
rhumerus -43.8505 -38.5352 -48.9472
rradius 75.3477
rwrist -35.4902
rhand -12.7387 -25.0771
rfingers 7.12502
rthumb 13.345 -54.6298
lclavicle -1.66979e-014 -3.4191e-014
lhumerus -26.4512 -39.89 107.256
lradius 98.5567
lwrist -6.85954
lhand -54.6767 -34.2342
lfingers 7.12502
lthumb -27.0709 -6.15478
rfemur -11.101 5.10859 -10.4845
rtibia 5.50246
rfoot -3.48243 -45.6598
rtoes 40.0216
lfemur -31.3531 -1.88385 -8.3522
ltibia 18.4515
lfoot -15.0355 18.8792
ltoes -63.1447
306
root 10.8029 16.4167 10.664 16.2577 -82.6482 3.13914
lowerback 5.71918 -0.804575 -14.4723
upperback 2.54128 -1.89824 -0.314776
thorax -0.0590586 -1.109 7.90028
lowerneck 2.31128 -12.2646 -5.6402
upperneck -13.0827 -15.6268 16.9749
head -2.37124 -8.54596 6.25705
rclavicle 3.97569e-015 2.38542e-014
rhumerus -43.9244 -38.6558 -48.8388
rradius 75.263
rwrist -35.5413
rhand -12.461 -25.2434
rfingers 7.12502
rthumb 13.6128 -54.7783
lclavicle 3.97569e-015 2.38542e-014
lhumerus -26.5436 -39.8829 107.317
lradius 98.52
lwrist -7.03069
lhand -54.5932 -34.2488
lfingers 7.12502
lthumb -26.991 -6.15703
rfemur -11.1937 5.32566 -10.4139
rtibia 5.48729
rfoot -2.53667 -45.7561
rtoes 38.6437
lfemur -31.1369 -1.4391 -8.35037
ltibia 18.3923
lfoot -14.7278 18.8745
ltoes -63.4296
307
root 10.7891 16.4191 10.6555 16.3634 -82.8207 3.02662
lowerback 5.67186 -0.708095 -14.5614
upperback 2.52785 -1.76955 -0.35175
thorax -0.0760651 -1.04392 7.9041
lowerneck 2.10816 -12.3008 -5.63247
upperneck -12.83 -15.6887 17.0349
head -2.25125 -8.56396 6.24081
rclavicle 7.15625e-015 1.59028e-015
rhumerus -44.0608 -38.8051 -48.6986
rradius 75.1596
rwrist -35.6631
rhand -12.2874 -25.482
rfingers 7.12502
rthumb 13.78 -55.0056
lclavicle 7.15625e-015 1.59028e-015
lhumerus -26.7048 -39.9239 107.415
lradius 98.4581
lwrist -7.21159
lhand -54.7586 -34.3731
lfingers 7.12502
lthumb -27.1493 -6.3059
rfemur -11.2779 5.46958 -10.3713
rtibia 5.46674
rfoot -1.43053 -45.8392
rtoes 37.1882
lfemur -31.0362 -1.06886 -8.39431
ltibia 18.3934
lfoot -13.6256 19.3487
ltoes -64.8927
308
root 10.7763 16.424 10.647 17.0464 -82.9845 2.26919
lowerback 5.70719 -0.618746 -14.5502
upperback 2.52204 -1.65783 -0.362119
thorax -0.130297 -0.984193 7.88316
lowerneck 1.79215 -12.3642 -5.53724
upperneck -12.5083 -15.7955 16.9799
head -2.10591 -8.59546 6.16527
rclavicle 1.90833e-014 -3.18055e-015
rhumerus -44.1538 -38.8402 -48.5904
rradius 75.0444
rwrist -35.6845
rhand -12.4436 -25.5625
rfingers 7.12502
rthumb 13.6295 -55.0963
lclavicle 1.90833e-014 -3.18055e-015
lhumerus -26.792 -40.0038 107.408
lradius 98.4309
lwrist -7.20226
lhand -55.0651 -34.4281
lfingers 7.12502
lthumb -27.4424 -6.40706
rfemur -11.3195 5.65347 -10.2316
rtibia 5.53866
rfoot -1.64146 -45.8046
rtoes 37.5578
lfemur -30.8404 -0.865344 -8.30893
ltibia 18.3554
lfoot -13.0269 19.6941
ltoes -65.7387
